/* XPM */
static char *_23a2cb21e4e4e2a9bf78f43a58f77feEr6b79l8XeCRRDgv[] = {
/* columns rows colors chars-per-pixel */
"64 64 14 1 ",
"  c black",
". c #2B1817",
"X c #2C2A00",
"o c #362020",
"O c #560603",
"+ c #740A06",
"@ c #5E5A03",
"# c #A80F09",
"$ c red",
"% c #FF0A00",
"& c #C6520F",
"* c #DF6A07",
"= c #FF8700",
"- c #FFF300",
/* pixels */
"OOOO++########++OOOO++########++OOOOOOOOOOOOOOOOOOOOOOOOOOOOOOOO",
"OOOO++########++OOOO++########++OOOOOOOOOOOOOOOOOOOOOOOOOOOOOOOO",
"OO++##====%%####++++####%%%%%%##++OOOO++##==================##++",
"OO++##====%%####++++####%%%%%%##++OOOO++##==================##++",
"++##%%%%==%%%%$$####%%%%%%%%==%%##++++##======================##",
"++##%%%%==%%%%$$####%%%%%%%%==%%##++++##======================##",
"##%%%%%%====%%%%    %%%%======%%%%####==========================",
"##%%%%%%====%%%%    %%%%======%%%%####==========================",
"##%%  ==**==%%        %%====%%  %%####==========================",
"##%%  ==**==%%        %%====%%  %%####==========================",
"##%%  ==****%%        ==**==%%  %%####==========================",
"##%%  ==****%%        ==**==%%  %%####==========================",
"%%%%    **==            ==%%    %%%%%%==========================",
"%%%%    **==            ==%%    %%%%%%==========================",
"%%%%          ..    ..          %%%%%%==========================",
"%%%%          ..    ..          %%%%%%==========================",
"%%%%    ....    oooo    ....    %%%%%%==========================",
"%%%%    ....    oooo    ....    %%%%%%==========================",
"%%%%        ..  ....  ..        %%%%%%==========================",
"%%%%        ..  ....  ..        %%%%%%==========================",
"%%            ..oooo..            %%%%==========================",
"%%            ..oooo..            %%%%==========================",
"  ....          oooo          ....  %%==========================",
"  ....          oooo          ....  %%==========================",
"    ..  @@    ..oooo..    @@  ..    %%==========================",
"    ..  @@    ..oooo..    @@  ..    %%==========================",
"%%      @@  XX  ....  XX  @@      %%%%==========================",
"%%      @@  XX  ....  XX  @@      %%%%==========================",
"======  @@@@    oooo    @@@@  %%%%%%%%==========================",
"======  @@@@    oooo    @@@@  %%%%%%%%==========================",
"==      @@--@@        @@--@@      %%%%==========================",
"==      @@--@@        @@--@@      %%%%==========================",
"==  ..  @@--@@        @@--@@  ..  %%%%==========================",
"==  ..  @@--@@        @@--@@  ..  %%%%==========================",
"    ..    @@--@@XXXX@@--@@    ..    %%==========================",
"    ..    @@--@@XXXX@@--@@    ..    %%==========================",
"      ..    XX  ....  XX    ..      %%==========================",
"      ..    XX  ....  XX    ..      %%==========================",
"==  %%        ..    ..        %%  %%%%==========================",
"==  %%        ..    ..        %%  %%%%==========================",
"======%%        ....        ====%%%%%%==========================",
"======%%        ....        ====%%%%%%==========================",
"==**==$$      ..    ..      ====$$%%%%==========================",
"==**==$$      ..    ..      ====$$%%%%==========================",
"==**==$$%%                %%$$====%%%%==========================",
"==**==$$%%                %%$$====%%%%==========================",
"==****%%%%  @@        @@  %%==**==%%%%==========================",
"==****%%%%  @@        @@  %%==**==%%%%==========================",
"==****==%%%%  @@    @@  ==%%==**================================",
"==****==%%%%  @@    @@  ==%%==**================================",
"==&&&&====%%            ====&&**================================",
"==&&&&====%%            ====&&**================================",
"====&&====%%%%        ====&&&&&&================================",
"====&&====%%%%        ====&&&&&&================================",
"======****======    ==&&**==**==================================",
"======****======    ==&&**==**==================================",
"========**&&********&&&&******==================================",
"========**&&********&&&&******==================================",
"==========&&&&&&&&&&&&&&&&======================================",
"==========&&&&&&&&&&&&&&&&======================================",
"============&&**&&&&&&==========================================",
"============&&**&&&&&&==========================================",
"================&&&&============================================",
"================&&&&============================================"
};
