/* XPM */
static char *c91821e6dff0455ac03daa9e33867e26NDgNkYtcfo8Nuqfo[] = {
/* columns rows colors chars-per-pixel */
"64 64 92 1 ",
"  c #FFAB00",
". c #FFAC00",
"X c #FFAF01",
"o c #FEB001",
"O c #FFB001",
"+ c #FEB301",
"@ c #FEB401",
"# c #FEB602",
"$ c #FEB802",
"% c #FEB902",
"& c #FDBC02",
"* c #FDBD02",
"= c #FDBF03",
"- c #D8AD2D",
"; c #D8AF2D",
": c #DAB12D",
"> c #E6B428",
", c #E0BB2F",
"< c #E6BC2F",
"1 c #E9B92C",
"2 c #E8BB2E",
"3 c #FABF30",
"4 c #FDC103",
"5 c #FDC203",
"6 c #FCC603",
"7 c #FCC704",
"8 c #FCC804",
"9 c #FCCA04",
"0 c #FCCD04",
"q c #FCCF05",
"w c #FBD205",
"e c #FBD305",
"r c #FCD005",
"t c #FCD105",
"y c #FBD505",
"u c #FBD705",
"i c #FBD706",
"p c #FBD806",
"a c #FBDA06",
"s c #FBDC06",
"d c #FADD06",
"f c #FBDD06",
"g c #FADF06",
"h c #FADF07",
"j c #FAE007",
"k c #FAE207",
"l c #E8C82F",
"z c #EACE2F",
"x c #E3C433",
"c c #E8C333",
"v c #E9CF32",
"b c #EBC937",
"n c #E9CE34",
"m c #EACE36",
"M c #EECD35",
"N c #EFCD37",
"B c #ECC738",
"V c #E8CC39",
"C c #EACC39",
"Z c #EACE3A",
"A c #FBC331",
"S c #FDC733",
"D c #FFCB35",
"F c #FFCC35",
"G c #FDCD36",
"H c #EAD239",
"J c #EAD13A",
"K c #EDD13A",
"L c #EDD23A",
"P c #E8D43E",
"I c #EED73C",
"U c #EED83D",
"Y c #F0D038",
"T c #F2D13A",
"R c #E7C845",
"E c #E7D340",
"W c #EBD240",
"Q c #EAD243",
"! c #EAD441",
"~ c #E8D045",
"^ c #EAD145",
"/ c #EAD245",
"( c #EAD544",
") c #EAD644",
"_ c #EAD349",
"` c #EAD54B",
"' c #EAD34F",
"] c #EDD949",
"[ c #EFDC4E",
"{ c #EAD352",
"} c #EAD451",
"| c #F0DD52",
/* pixels */
";;;;----;;::,,,,xxxxVVVVHPVKZmZmbbbbBBBBWWWW(())]]]][[[[||||bZZZ",
";;;;----::::,,,,xxxxVVVVHHVHZZZZbbbbBBBBWWWW(())]]]][[[[||||BVVB",
";;;;--;;::::,,,,xxxxVVVVKZKHZVZZbbbbBBBBWWWP))))]]]][[[[||||mZZZ",
";;;;---;::::,,,,xxxxVVVVHVPZZZZZbbbbBBBBWWWm))))]]]][[[[||||BZVB",
"RRRR    ....  OOOO@.O@@@@@@####%$@$$$@**$**55$5*656566666667VBVZ",
"RRRR kkkkkkkkhhhsshahaaiuaiuuuuwawawawwwqqrqqqqq7q7977797667ZZZZ",
"RRRR.kkkkhhshhhasssauuaiuuuuuuwuuwwwwqwqqq9qq999979799776667mZbZ",
"RRRR.kkhkhkssahasaaasuiippuuuwwwwwwqwqwqqqq9qq99q77q77766699BZVB",
"~~~~ kkhhhssjsssaaaaauiiuuuururuwwwqqrrq9q9qq9q9q77976666567zzzz",
"~~~~ hhhhhssssssaaauuuiuuuwwuurqwqwwqqqqqq9q9999997776666669zzzz",
"~~~~Okkhhhsssasahaiaiiuuuuwwruquqwqqqqqqqqq999q667776666*657zzzz",
"~~~~ hahhaasssaaiaiaiuuuuwurururwqwqq9q999999999797666657567zzzz",
"~///Ohhssssasaaauuuuuwuwwuwwquqrwqqq9q9qq9999996776666575759vvvv",
"~(// khhsasaaaaauuuuuuuuwwwwurqqqqqqr9q9999969697666656*5*5qvvvv",
"////Oksssshaauauuuuuuwwuuuuqrrqqq9qqqq9q9999969666666657565wvvvv",
"////Osssssuhuuauuuuuuwwwwwqqrrrqqqq9q99999996966666557*55*$qvvvv",
"~/~/Oaasausuauuiuuuuwwwwurrrurqq00000888q8888866665655555=5qKHHH",
"///~Ohsahiauauuuuuwuwuuwrrrrqqqq0000800w88888664567*55555=*qHHHH",
"//~/Ossaaaiauppuuuwwwwwwrrrrq9q900000888886866667*565555===qHHHH",
"///~@aaaiaiiupuuwwuwuwwwrrrrqqqq0080808888866666565555=====qHHHH",
"QQQQ@iiaiiauuuuuwuwuwwqwqrq99qq90088q86888666464655=55==5*$qHHHV",
"QQQQOkiiaaiuuuwuuwwwqwwqrqqqq9qq8080888866666646655=5==*=5*qVHHK",
"QQQQOahiuuuuwuwwwwwwqwqqqq9qq9998008888666666455*555$*57$*5wPHPK",
"QQQQ@aiauuwuuwuwwwqwwqwqqqqq9q9q880887766664485555=555=$**@wKVHH",
"PEEE@aaiiuuwwwuwwwwqrqq9q9q9q999088888669555585544&4444&5$*tmmmm",
"EEEEOiiaiuuwuwwwwqwwqqqqqqqq99995088866654944455&444&&&&**$tmmmm",
"EEEE@auwuuwuwwruwqqwrqqqqq9q99q68888666659554645444&&&&&***tmmmm",
"EEEE@uuuwuwwuwrrwwqqqq999999999988886664485444&4&44&&4&&*@$ammmm",
"PPPP@auuwuuwwrrrqqw9qq9qq9999996886666465844444&4&&&&&&&&&$wmvmm",
"PPPP@iuwwwwwrrrrqqq9q9qq99999669666446645544&4544&&&&&&&$$$ivmnn",
"PPPP$iwwwwwrrrrqqqqq99q99999969666666446555&544&4&4&&&&$&$$annnn",
"PPPP$iwuuwwrurrrqqq9qq9999996966666646444444&44&&&&&$&&&$$Oinnnn",
"!!!!%yyr0yt00tt000000888w888886666664644444===&&&&&&&$$$$$&iclll",
"!!!!#ryyyttttt000000800w588666666446444444==4&4&&&&&&&$&$$Oaxlll",
"!!!!=iyrtttt00t00000088888686666464444444&4&&&&&&&&$$$$$$$@allll",
"!!!E%qrq0t0t0t000080808888866664646444444&44&&&&&&$&&$$@$@@allll",
"`___=0wywqw000000088q868886666465544444&4&4&&&&&$&&$$$$$$$OaHZZZ",
"____%wwqwq0q00008080888888668464555444&44&&&&&$&&$$$$$$@@@@uHVZZ",
"____=0qwqw0q0008800888866666954955444&444&&&&&&$$&$$$$@$@@@aZZZZ",
"____%wqq0000000088088866666445455545&44&&&&&&&&&$$$$$@$@$@OaZZZZ",
"''''$ttt00000888088888664954544454==4&&&&&&&&$&$$$@&##+#@@@acccc",
"''''*t0000000008508886665949944444==4&&4&&&&$&$$$$@###++@@Oacccc",
"''''$00000088800888866665885444&====4&&&&#&&&$$$$$###+#+@@Oicccc",
"''''4t00000080888888666454454444=44&&&&&&&&#$$$$$@###++#O@Okcccc",
"{{{{40000808q8888866664655554444==&&4&&&&&$$&$@$@$@@O@@O@O.h<<<<",
"{{{{40008080888866644664555544&&4&&4&&&&#&&$$$$$$@@@@@@@OOOa<<<<",
"{{}}40008088687766666446444=&544&&&&&&&#&##$$$@$@@@@O@OO@@Oh<<<<",
"{{}}40888w88888666664644444444&4&&&&&&#&#&&@@$@@$@@@@@O@@.Oh<<<<",
"{}}}488808888895665656555=5=4&4&&&&&&$&$$$@&##+#@@@OXoooo+Xh:<22",
"}}}}4t08808885687*655*55====4&&&&&&&$&$$$$@###++@@+#+X+oXXXh<<22",
"}}}}48t85888666666*757*55===4&&&&&&$$$$$$$###+#+++++XXXXXXXh2222",
"}}}}888888896664575555*5==5$&&&&$&$&$&$$$@###+++++#.+XXXXX h2222",
"__``5888886666465755556$==5$**&&&$&$$$$$@$@@@@@+.#+XX+XX.. h1111",
"````888886644664555=**55=***$*&&$&$$$@$@$@@@O@O##.X+XXXX.. k1111",
"````888866666446555=5*5*$*5*&$&$&$&$$$@$@@@@@@@O.++OX XX.. k1111",
"````58856666464455===55$**$*&&$&$$$$$@$@$@@@O@OO#...XX  ...k1111",
"((((6966664644465*5$555****$*$*$$$$@$$@@@@@@OO@@OOOO...... k>>>>",
"((((66666464644455*55*****$***$$$$$@@@@@@O@OO@O..O..... .. k>>>>",
"((((666646644444***5$$*$$*@*@$$@$@@@@@@@O@@.@.@ O.....  .  k>>>>",
"((((7769888q0080qqqwwwwwawwwuaruauaaaaaaaikakikhhkhkkkkkkkkk>>>>",
"TUI!IIIIULLUKULLLLLLKKKKNYYYMMMMNNNNYTTTGGGGDDDGGDDDSSSSAAAA3333",
"UUUUIIIIUUUUHKYILLLLKKKKYYYYMMMMNNNNYYTTGGGGGDGDDDDDSSSSAAAA3333",
"UUUUIIIILUULULULKLKKKKKKYYYYMMNNNNNNTTTTGGGGDGDGDDDDSSSSAAAA3333",
"UUUUIIIIUUUUYLULKKKKKKKKYYYYMNNNNNZYTTTTGGGGFDGDDDDDSSSSAAAA3333"
};
